<svg width="26" height="27" viewBox="0 0 26 27" fill="none" xmlns="http://www.w3.org/2000/svg">
<path d="M23.92 0H2.08C1.52835 0 0.999293 0.227571 0.609218 0.632649C0.219142 1.03773 0 1.58713 0 2.16V24.84C0 25.4129 0.219142 25.9623 0.609218 26.3674C0.999293 26.7724 1.52835 27 2.08 27H23.92C24.4716 27 25.0007 26.7724 25.3908 26.3674C25.7809 25.9623 26 25.4129 26 24.84V2.16C26 1.58713 25.7809 1.03773 25.3908 0.632649C25.0007 0.227571 24.4716 0 23.92 0ZM8.84 19.98C8.84 20.2664 8.73043 20.5411 8.53539 20.7437C8.34035 20.9462 8.07582 21.06 7.8 21.06C7.52417 21.06 7.25965 20.9462 7.06461 20.7437C6.86957 20.5411 6.76 20.2664 6.76 19.98V11.34C6.76 11.0536 6.86957 10.7789 7.06461 10.5763C7.25965 10.3738 7.52417 10.26 7.8 10.26C8.07582 10.26 8.34035 10.3738 8.53539 10.5763C8.73043 10.7789 8.84 11.0536 8.84 11.34V19.98ZM7.8 8.64C7.49146 8.64 7.18985 8.54499 6.93331 8.36698C6.67677 8.18897 6.47682 7.93596 6.35875 7.63995C6.24067 7.34393 6.20978 7.0182 6.26997 6.70395C6.33017 6.3897 6.47874 6.10105 6.69691 5.87449C6.91508 5.64793 7.19305 5.49364 7.49566 5.43113C7.79827 5.36862 8.11193 5.4007 8.39699 5.52332C8.68204 5.64593 8.92568 5.85357 9.09709 6.11998C9.26851 6.38638 9.36 6.69959 9.36 7.02C9.36 7.44965 9.19564 7.8617 8.90309 8.16551C8.61053 8.46932 8.21374 8.64 7.8 8.64ZM20.28 19.98C20.28 20.2664 20.1704 20.5411 19.9754 20.7437C19.7804 20.9462 19.5158 21.06 19.24 21.06C18.9642 21.06 18.6996 20.9462 18.5046 20.7437C18.3096 20.5411 18.2 20.2664 18.2 19.98V15.12C18.2 14.4039 17.9261 13.7172 17.4385 13.2108C16.9509 12.7045 16.2896 12.42 15.6 12.42C14.9104 12.42 14.2491 12.7045 13.7615 13.2108C13.2739 13.7172 13 14.4039 13 15.12V19.98C13 20.2664 12.8904 20.5411 12.6954 20.7437C12.5004 20.9462 12.2358 21.06 11.96 21.06C11.6842 21.06 11.4196 20.9462 11.2246 20.7437C11.0296 20.5411 10.92 20.2664 10.92 19.98V11.34C10.9193 11.0742 11.013 10.8175 11.1831 10.6189C11.3533 10.4204 11.588 10.294 11.8423 10.2639C12.0966 10.2338 12.3526 10.3022 12.5614 10.4559C12.7702 10.6096 12.9171 10.8379 12.974 11.097C13.6777 10.6016 14.4981 10.3147 15.347 10.2669C16.1959 10.2192 17.0413 10.4125 17.7924 10.8261C18.5435 11.2397 19.1719 11.8579 19.6102 12.6144C20.0485 13.3709 20.28 14.2371 20.28 15.12V19.98Z" fill="#F8F7F9"/>
</svg>
